<svg xmlns="http://www.w3.org/2000/svg" viewBox="0 0 149.01 69.04"><defs><style>.d{fill:#dd2513;}.e{fill:#d9d0b6;}.f{isolation:isolate;}</style></defs><g id="a"></g><g id="b"><g id="c"><g><g class="f"><path class="d" d="M34.69,61.63h1.88c.94,0,1.68,.19,2.21,.56,.54,.37,.81,.93,.81,1.66,0,.59-.16,1.07-.5,1.44-.33,.37-.75,.6-1.25,.72l2.26,2.89h-1.34l-2.03-2.71h-.96v2.71h-1.07v-7.28Zm1.07,3.68h.83c.69,0,1.18-.13,1.46-.38,.29-.26,.43-.59,.43-1.01s-.15-.73-.44-.99c-.29-.26-.78-.39-1.46-.39h-.83v2.77Z"></path><path class="d" d="M42.99,61.63h4.73v.91h-3.66v2.19h3.19v.92h-3.19v2.34h3.66v.91h-4.73v-7.28Z"></path><path class="d" d="M51.62,68.48c-.5-.37-.74-.93-.74-1.66h1.05c.05,.85,.59,1.3,1.68,1.3,.98,0,1.63-.38,1.63-1.12,0-.57-.38-.81-1.03-1.06l-1.56-.55c-.89-.31-1.61-.87-1.61-1.92,0-1.29,1.12-1.98,2.55-1.98s2.51,.71,2.51,2.21h-1.03c-.07-1.04-.77-1.28-1.5-1.28-.94,0-1.44,.42-1.44,1.02,0,.5,.33,.8,.93,1l1.56,.55c.59,.21,1.03,.46,1.3,.74s.42,.67,.42,1.17c0,1.48-1.21,2.12-2.72,2.12-.83,0-1.48-.19-1.98-.56Z"></path><path class="d" d="M61.35,62.55h-2.45v-.91h6.01v.91h-2.48v6.36h-1.07v-6.36Z"></path><path class="d" d="M69.62,61.63h1.17l2.57,7.28h-1.16l-.58-1.73h-2.84l-.58,1.73h-1.13l2.56-7.28Zm1.71,4.67l-.38-1.1-.78-2.46-.78,2.46-.37,1.1h2.3Z"></path><path class="d" d="M76.01,66.34v-4.71h1.07v4.71c0,.65,.11,1.1,.32,1.37,.22,.26,.59,.39,1.1,.39s.88-.13,1.1-.39c.22-.26,.33-.72,.33-1.37v-4.71h1.07v4.71c0,.95-.2,1.64-.61,2.06-.4,.42-1.03,.64-1.88,.64-1.69,0-2.49-.8-2.49-2.7Z"></path><path class="d" d="M84.51,61.63h1.88c.94,0,1.68,.19,2.21,.56,.54,.37,.81,.93,.81,1.66,0,.59-.16,1.07-.5,1.44-.33,.37-.75,.6-1.25,.72l2.26,2.89h-1.34l-2.03-2.71h-.96v2.71h-1.07v-7.28Zm1.07,3.68h.83c.69,0,1.18-.13,1.46-.38,.29-.26,.43-.59,.43-1.01s-.15-.73-.44-.99c-.29-.26-.78-.39-1.46-.39h-.83v2.77Z"></path><path class="d" d="M94.53,61.63h1.17l2.57,7.28h-1.16l-.58-1.73h-2.84l-.58,1.73h-1.13l2.56-7.28Zm1.71,4.67l-.38-1.1-.78-2.46-.78,2.46-.37,1.1h2.3Z"></path><path class="d" d="M101.13,61.63h1.43l2.29,6.23-.12-2.09v-4.14h.97v7.28h-1.43l-2.29-6.23,.12,2.09v4.14h-.97v-7.28Z"></path><path class="d" d="M111.18,62.55h-2.45v-.91h6.01v.91h-2.48v6.36h-1.07v-6.36Z"></path></g><path class="d" d="M0,.12c6.97,.11,13.79-.4,20.57,.5,7.98,1.07,13.28,5.53,15.99,13.07,2.44,6.82,2.43,13.65-.51,20.29-3.19,7.2-8.98,11.12-16.67,12.21-6.37,.91-12.8,.34-19.37,.5V.12ZM9.92,37.87c2.6,.14,5.01,.23,7.39-.12,2.77-.4,5.3-1.43,7.23-3.55,5.62-6.16,5.09-17.4-1.22-22.87-3.83-3.32-8.59-3.09-13.4-3.05v29.6Z"></path><path class="d" d="M66.48,34.15c3.57-10.82,7.06-21.41,10.62-32.2h-9.68c-3.2,10.42-6.56,20.77-9.22,31.36-2.46-10.67-5.94-20.96-8.84-31.34h-9.79l12.05,37.64,14.87-5.46Z"></path><polygon class="e" points="148.13 8.29 147.61 8.48 146.67 8.83 146.15 9.02 145.2 9.36 144.68 9.55 143.74 9.9 143.22 10.09 142.28 10.44 141.76 10.63 140.81 10.97 140.29 11.16 139.71 11.38 139.71 11.87 139.71 12.58 139.71 13.87 139.71 14.58 139.71 15.87 139.71 16.58 139.71 17.87 139.71 18.58 139.71 19.87 139.71 20.58 139.71 21.87 139.71 22.58 139.71 23.87 139.71 24.58 139.71 25.87 139.71 26.58 139.71 27.87 139.71 28.58 139.71 29.87 139.71 30.58 139.71 31.87 139.71 32.58 139.71 33.87 139.71 34.58 139.71 35.87 139.71 36.58 139.71 37.87 139.71 38.58 139.71 39.87 139.71 40.58 139.71 41.87 139.71 42.58 139.71 43.87 139.71 44.58 139.71 45.87 139.71 46.58 139.71 46.65 139.78 46.65 140.49 46.65 141.78 46.65 142.49 46.65 143.78 46.65 144.49 46.65 145.78 46.65 146.49 46.65 147.78 46.65 148.49 46.65 149.01 46.65 149.01 45.88 149.01 45.18 149.01 43.88 149.01 43.18 149.01 41.88 149.01 41.18 149.01 39.88 149.01 39.18 149.01 37.88 149.01 37.18 149.01 35.88 149.01 35.18 149.01 33.88 149.01 33.18 149.01 31.88 149.01 31.18 149.01 29.88 149.01 29.18 149.01 27.88 149.01 27.18 149.01 25.88 149.01 25.18 149.01 23.88 149.01 23.18 149.01 21.88 149.01 21.18 149.01 19.88 149.01 19.18 149.01 17.88 149.01 17.18 149.01 15.88 149.01 15.18 149.01 13.88 149.01 13.18 149.01 11.88 149.01 11.18 149.01 9.88 149.01 9.18 149.01 7.96 148.13 8.29"></polygon><polygon class="d" points="133.96 1.99 143.26 1.99 143.26 6.1 133.96 9.51 133.96 1.99"></polygon><polygon class="e" points="96.35 27.22 95.4 27.56 94.89 27.75 93.94 28.1 93.42 28.29 92.48 28.64 91.96 28.83 91.01 29.17 90.49 29.36 89.55 29.71 89.03 29.9 88.09 30.25 87.57 30.44 87.53 30.45 87.53 31.69 87.53 32.4 87.53 33.69 87.53 34.4 87.53 35.69 87.53 36.4 87.53 37.69 87.53 38.4 87.53 39.69 87.53 40.4 87.53 41.69 87.53 42.4 87.53 43.69 87.53 44.4 87.53 45.69 87.53 46.4 87.53 46.65 87.78 46.65 88.49 46.65 89.78 46.65 90.49 46.65 91.78 46.65 92.49 46.65 93.78 46.65 94.49 46.65 95.78 46.65 96.49 46.65 96.84 46.65 96.84 45.7 96.84 45 96.84 43.7 96.84 43 96.84 41.7 96.84 41 96.84 39.7 96.84 39 96.84 37.7 96.84 37 96.84 35.7 96.84 35 96.84 33.7 96.84 33 96.84 31.7 96.84 31 96.84 29.7 96.84 29 96.84 27.7 96.84 27.04 96.35 27.22"></polygon><polygon class="d" points="81.78 1.99 91.08 1.99 91.08 25.17 81.78 28.58 81.78 1.99"></polygon><polygon class="e" points="71.45 36.32 70.5 36.66 69.98 36.85 69.04 37.2 68.52 37.39 67.57 37.73 67.06 37.92 66.11 38.27 65.59 38.46 64.64 38.8 64.13 38.99 63.18 39.34 62.66 39.53 61.72 39.88 61.2 40.07 60.25 40.41 59.73 40.6 58.79 40.95 58.27 41.14 57.69 41.35 57.92 42.08 58.25 43.12 58.86 45.02 59.19 46.06 59.38 46.65 59.78 46.65 60.49 46.65 61.78 46.65 62.49 46.65 63.78 46.65 64.49 46.65 65.78 46.65 66.49 46.65 67.78 46.65 68.41 46.65 68.43 46.59 68.75 45.61 68.92 45.08 69.23 44.1 69.4 43.56 69.71 42.58 69.89 42.05 70.2 41.07 70.37 40.53 70.68 39.55 70.85 39.01 71.17 38.03 71.34 37.5 71.65 36.52 71.75 36.21 71.45 36.32"></polygon><path class="e" d="M131.93,32.09c-.02-.47-.06-.94-.12-1.41-.04-.28-.08-.56-.14-.84-.12-.6-.27-1.19-.46-1.75-.14-.41-.3-.8-.48-1.19-.6-1.28-1.44-2.39-2.51-3.26-.79-.64-1.62-1.2-2.47-1.72-.54-.33-1.09-.64-1.64-.94-.83-.44-1.67-.84-2.53-1.23-.42-.19-.85-.38-1.28-.57-.31-.14-.62-.27-.94-.41-.18,.06-.38,.14-.56,.2-.17,.06-.34,.12-.52,.19-.31,.11-.62,.23-.95,.35-.17,.06-.34,.13-.52,.19-.31,.11-.63,.23-.94,.35-.17,.06-.34,.13-.52,.19-.31,.12-.63,.23-.94,.35-.17,.06-.34,.13-.51,.19-.31,.12-.63,.23-.94,.35-.17,.06-.34,.13-.51,.19-.32,.12-.63,.23-.94,.35-.17,.06-.35,.13-.52,.19-.32,.12-.63,.23-.94,.35-.17,.06-.35,.13-.52,.19-.33,.12-.64,.23-.95,.34-.15,.05-.3,.11-.45,.16l1.21,.6,2.57,1.27,1.4,.7,2.57,1.27,1.4,.7,2.57,1.27,.34,.17c1.29,.68,2.27,1.55,2.72,2.9,.11,.31,.19,.64,.24,1.01,.02,.19,.02,.36,.02,.54,0,.23-.01,.45-.04,.67-.05,.37-.12,.72-.25,1.04-.06,.17-.15,.32-.23,.48-.15,.28-.31,.54-.51,.79-.1,.13-.22,.25-.34,.37-.21,.22-.44,.42-.69,.61-.14,.1-.28,.19-.42,.28-.27,.17-.55,.32-.84,.45-.17,.07-.34,.14-.51,.2-.33,.12-.67,.22-1,.29-.2,.04-.4,.08-.61,.1-.44,.05-.86,.06-1.27,.02-.3-.03-.59-.08-.87-.16-.15-.04-.29-.08-.43-.14-2.4-.99-3.82-2.93-5.37-5.15l-.34,.44-.31,.4c-.19,.24-.38,.49-.56,.73l-.31,.4c-.19,.25-.38,.49-.56,.73l-.31,.4c-.19,.24-.38,.49-.56,.73-.1,.13-.21,.27-.31,.4-.19,.24-.38,.49-.56,.73l-.31,.4c-.19,.24-.38,.49-.56,.73l-.31,.4-.39,.5c1.48,2,3.38,3.53,5.5,4.61,.42,.22,.86,.41,1.3,.59,.64,.26,1.3,.5,1.97,.68,.3,.08,.6,.14,.91,.2,.51,.11,1.03,.19,1.54,.25,.26,.03,.52,.06,.79,.08,.45,.03,.89,.05,1.34,.05,.22,0,.45-.02,.67-.03,.4-.02,.8-.05,1.19-.1,.21-.02,.41-.05,.62-.09,.36-.06,.72-.13,1.08-.21,.19-.04,.38-.08,.57-.13,.33-.09,.66-.19,.99-.3,.18-.06,.35-.11,.53-.18,.31-.12,.61-.25,.91-.38,.16-.07,.33-.14,.49-.22,.28-.14,.56-.3,.84-.45,.15-.09,.3-.17,.45-.26,.09-.05,.18-.1,.27-.15,.18-.11,.33-.25,.5-.37,.14-.1,.27-.2,.4-.3,.24-.19,.46-.4,.68-.61,.12-.12,.24-.23,.35-.35,.21-.22,.41-.46,.6-.7,.1-.13,.21-.26,.31-.4,.18-.25,.35-.51,.52-.77,.09-.15,.18-.29,.26-.44,.16-.28,.3-.56,.44-.85,.08-.16,.15-.32,.22-.49,.13-.31,.25-.61,.36-.93,.06-.18,.12-.35,.18-.53,.1-.34,.19-.67,.28-1.02,.05-.19,.09-.38,.13-.57,.07-.37,.13-.74,.18-1.12,.03-.21,.07-.41,.08-.62,.04-.41,.05-.83,.05-1.24,0-.24,0-.48-.01-.72Z"></path><path class="d" d="M126.55,5.79c-1.97,2.28-3.89,4.5-5.87,6.79-.74-.98-1.31-1.79-1.95-2.54-1.46-1.71-3.36-2.31-5.53-1.91-1.7,.31-2.84,1.37-3.33,3.04-.53,1.8,.21,3.24,1.49,4.43,.52,.48,1.16,.83,2.12,1.5-3.6,1.28-6.88,2.45-10.06,3.59-4.48-4.63-3.58-12.77,1.69-17.35,6.06-5.26,16.4-4.2,21.43,2.45Z"></path><line class="d" x1="116.99" y1="27.31" x2="108.12" y2="22.91"></line></g></g></g></svg>